# xmcd CD database file
#
# Track frame offsets:
#	150
#	12418
#	28608
#	47162
#	63482
#	77629
#	96311
#	111437
#	126169
#	139325
#	155205
#	172903
#
# Disc length: 2504 seconds
#
# Revision: 1
# Processed by: cddbd v1.4PL0 Copyright (c) Steve Scherf et al.
# Submitted via: NotifyCDPlayer 1.60beta14
#
DISCID=a709c60c
DTITLE=Daylon Wear - Texas Twister
DYEAR=1900
DGENRE=
TTITLE0=Mornin' Glory
TTITLE1=Tornado Alley
TTITLE2=What She's Doing In Denver
TTITLE3=Love And Then Some
TTITLE4=She's Mine
TTITLE5=Movin' My Heart Around
TTITLE6=Fast Enough
TTITLE7=Love Like A River
TTITLE8=I Got The Time
TTITLE9=My Woman's Love
TTITLE10=(I Want) All You Love
TTITLE11=When The Whiskey Walks In
EXTD=
EXTT0=
EXTT1=
EXTT2=
EXTT3=
EXTT4=
EXTT5=
EXTT6=
EXTT7=
EXTT8=
EXTT9=
EXTT10=
EXTT11=
PLAYORDER=
